# xmcd
#
# Track frame offsets: 
#        150
#        19365
#        39277
#
# Disc length: 786 seconds
#
# Revision: 4
# Processed by: cddbd v1.5.2PL0 Copyright (c) Steve Scherf et al.
# Submitted via: ExactAudioCopy v0.90b4
#
DISCID=1b031003
DTITLE=Nick Cave And The Bad Seeds - Into My Arms
DYEAR=1997
DGENRE=Rock
TTITLE0=into my arms
TTITLE1=little empty boat
TTITLE2=right now I'm a-roaming
EXTD=into my arms (ep d1533) YEAR: 1997 ID3G: 17
EXTT0=
EXTT1=
EXTT2=
PLAYORDER=
